<svg width="24" height="24" viewBox="0 0 24 24" xmlns="http://www.w3.org/2000/svg" fill="none">
  <!-- Monochrome activity-bar icon: black shapes are tinted by the editor -->
  <path
    d="M5.4 6C3.6 6 2.9 6.9 2.9 8.2c0 1.2 0 2.2-1.9 3.8 1.9 1.6 1.9 2.6 1.9 3.8 0 1.3.7 2.2 2.5 2.2"
    stroke="#000000"
    stroke-width="1.5"
    stroke-linecap="round"
    stroke-linejoin="round"
  />
  <path
    d="M18.6 6c1.8 0 2.5.9 2.5 2.2 0 1.2 0 2.2 1.9 3.8-1.9 1.6-1.9 2.6-1.9 3.8 0 1.3-.7 2.2-2.5 2.2"
    stroke="#000000"
    stroke-width="1.5"
    stroke-linecap="round"
    stroke-linejoin="round"
  />
  <circle cx="12" cy="12" r="5.5" stroke="#000000" stroke-width="1.5"/>
  <circle cx="12" cy="12" r="2.2" fill="#000000"/>
  <circle cx="12" cy="7.2" r="0.55" fill="#000000"/>
  <circle cx="16.2" cy="8.6" r="0.55" fill="#000000"/>
  <circle cx="17.8" cy="12" r="0.55" fill="#000000"/>
  <circle cx="16.2" cy="15.4" r="0.55" fill="#000000"/>
  <circle cx="12" cy="16.8" r="0.55" fill="#000000"/>
  <circle cx="7.8" cy="15.4" r="0.55" fill="#000000"/>
  <circle cx="6.2" cy="12" r="0.55" fill="#000000"/>
  <circle cx="7.8" cy="8.6" r="0.55" fill="#000000"/>
</svg>
